<?xml version="1.0" encoding="utf-8"?>
<!-- Generator: Adobe Illustrator 24.0.0, SVG Export Plug-In . SVG Version: 6.00 Build 0)  -->
<svg version="1.1" id="Lager_1" xmlns="http://www.w3.org/2000/svg" xmlns:xlink="http://www.w3.org/1999/xlink" x="0px" y="0px"
	 viewBox="0 0 57.9 198.7" style="enable-background:new 0 0 57.9 198.7;" xml:space="preserve">
<style type="text/css">
	.st0{fill:url(#SVGID_1_);}
</style>
<title>Lager 2 (6)</title>
<g id="Lager_2_1_">
	<g id="About">
		<g id="Lager_2-2">
			<g id="Lager_1-2">
				
					<linearGradient id="SVGID_1_" gradientUnits="userSpaceOnUse" x1="-14.4031" y1="846.0885" x2="70.6869" y2="639.8985" gradientTransform="matrix(1 0 0 1 0 -659.0998)">
					<stop  offset="0" style="stop-color:#1E0028"/>
					<stop  offset="0.6034" style="stop-color:#3D003E"/>
				</linearGradient>
				<path class="st0" d="M56.3,23.4L1.3,0v8.4l12.5,5.1v19.2l-12.5,5v9.7l55-23.4V23.4z M20.9,29.9V16.4l16.7,6.9L20.9,29.9z
					 M1.3,54.7v8.1h4C4,64,2.9,65.4,2.1,66.9C1,69.1,0.4,71.5,0.5,74c0,2.8,0.7,5.6,2,8c1.4,2.4,3.3,4.5,5.8,5.9
					c2.7,1.5,5.9,2.3,9,2.2c3,0.1,6-0.6,8.6-2c2.3-1.3,4.2-3.1,5.5-5.4c1.3-2.3,1.9-4.8,1.9-7.4c0-2.6-0.4-5.1-1.4-7.5
					c-0.7-1.9-1.9-3.6-3.3-4.9h29.2v-8.1H1.3z M25.7,77c-0.9,1.4-2.1,2.6-3.5,3.4c-1.5,0.8-3.2,1.3-4.9,1.2c-1.7,0-3.5-0.4-5-1.2
					c-1.5-0.8-2.7-1.9-3.5-3.4c-0.9-1.5-1.3-3.1-1.3-4.8c0-1.4,0.2-2.8,0.8-4.2c0.5-1.2,1.2-2.3,2.2-3.2c1-0.9,2.1-1.6,3.4-2h6.7
					c1.3,0.4,2.4,1.1,3.4,2c0.9,0.9,1.7,2.1,2.2,3.3c0.5,1.3,0.8,2.7,0.8,4.1C27,73.9,26.6,75.6,25.7,77z M8.6,128.2
					c2.6,1.4,5.5,2.2,8.4,2.1c2.9,0,5.8-0.7,8.3-2.1c2.5-1.4,4.5-3.4,5.9-5.9c1.5-2.7,2.2-5.8,2.2-8.9c0.1-3.1-0.7-6.2-2.2-9
					c-2.8-5.2-8.3-8.4-14.2-8.4c-3.1-0.1-6.1,0.7-8.8,2.2c-2.4,1.4-4.4,3.6-5.7,6.1c-1.4,2.7-2.1,5.8-2,8.8
					c-0.1,3.2,0.7,6.3,2.2,9.1C4.1,124.7,6.1,126.8,8.6,128.2z M8.5,108.5c0.9-1.3,2.1-2.4,3.5-3.2c1.5-0.8,3.3-1.2,5-1.2
					c1.7,0,3.4,0.4,4.9,1.2c1.4,0.7,2.6,1.8,3.5,3.2c1.7,2.8,1.7,6.4,0,9.2c-0.9,1.3-2.1,2.4-3.5,3.2c-1.5,0.8-3.2,1.2-4.9,1.2
					c-1.7,0-3.5-0.4-5-1.2c-1.4-0.7-2.6-1.8-3.5-3.2c-0.9-1.4-1.4-3-1.3-4.7C7.2,111.5,7.6,109.9,8.5,108.5z M6.8,160.5L1.3,161v7.3
					H32v-8.1H18.4c-2,0-4-0.3-5.9-1.1c-1.6-0.6-3-1.6-4.1-2.9C7.5,155,7,153.5,7,152c-0.1-1.4,0.4-2.8,1.4-3.7
					c1.1-0.8,2.4-1.3,3.8-1.3H32v-8.1H9.2c-2.5,0-4.9,1-6.6,2.9c-1.7,1.8-2.7,4.3-2.6,6.9c0,1.8,0.3,3.5,0.9,5.2
					c0.5,1.5,1.4,2.9,2.5,4.1C4.3,159,5.5,159.9,6.8,160.5L6.8,160.5z M32,177.3h-6.3v5.3H1.3v8.1h24.4v8H32v-8h13.5v-8.1H32V177.3z
					"/>
			</g>
		</g>
	</g>
</g>
</svg>
