<?xml version="1.0" encoding="utf-8"?>
<!-- Generator: Adobe Illustrator 24.0.0, SVG Export Plug-In . SVG Version: 6.00 Build 0)  -->
<svg version="1.1" id="Lager_1" xmlns="http://www.w3.org/2000/svg" xmlns:xlink="http://www.w3.org/1999/xlink" x="0px" y="0px"
	 viewBox="0 0 58.7 193.6" style="enable-background:new 0 0 58.7 193.6;" xml:space="preserve">
<style type="text/css">
	.st0{fill:url(#SVGID_1_);}
</style>
<title>Lager 2 (9)</title>
<g id="Lager_2_1_">
	<g id="Code">
		<g id="Lager_2-2">
			<g id="Lager_1-2">
				
					<linearGradient id="SVGID_1_" gradientUnits="userSpaceOnUse" x1="8.6116" y1="854.9601" x2="49.0216" y2="665.5201" gradientTransform="matrix(1 0 0 1 0 -664.2397)">
					<stop  offset="0" style="stop-color:#8C0063"/>
					<stop  offset="1" style="stop-color:#56003D"/>
				</linearGradient>
				<path class="st0" d="M6.2,15.7c0-0.7,0.1-1.4,0.4-2c0.4-0.6,1.1-0.9,1.8-1c1.4-0.2,2.7-0.3,4.1-0.3h8c2.4,0.1,4.7-0.8,6.5-2.4
					c0.6-0.5,1.1-1.1,1.6-1.8c0.4,0.7,1,1.3,1.6,1.9c0.8,0.7,1.8,1.3,2.9,1.6c1.5,0.5,3,0.7,4.5,0.7h6.9c1.4,0,2.8,0.1,4.2,0.3
					c0.7,0.1,1.4,0.4,1.8,1c0.3,0.6,0.5,1.3,0.5,2v2.6h6.2v-4.4c0-1.1,0-2.2-0.1-3.2c0-1-0.3-2-0.7-2.9c-0.5-0.9-1.3-1.6-2.2-2
					c-1.4-0.5-3-0.8-4.5-0.7H39.4c-1.2,0-2.4-0.2-3.5-0.5c-1.1-0.3-2.1-0.9-2.9-1.7c-0.7-0.8-1.2-1.8-1.2-2.9h-6
					c0,1.1-0.5,2.1-1.2,2.9c-0.8,0.8-1.8,1.3-2.9,1.7c-1.1,0.4-2.3,0.5-3.5,0.5H8.1C6.4,5,4.7,5.3,3.2,5.8c-1,0.4-1.8,1.1-2.3,2
					c-0.4,0.9-0.7,1.8-0.7,2.8C0,11.7,0,12.8,0,13.9v4.4h6.2V15.7z M45.2,58l6.9,2.9c1.1-1.8,2-3.7,2.7-5.8c0.8-2.5,1.2-5.1,1.2-7.7
					c0-3.1-0.6-6.2-1.8-9.1c-1.1-2.7-2.8-5.2-4.9-7.2c-2.2-2-4.7-3.6-7.5-4.6c-3-1.1-6.2-1.7-9.5-1.6c-3,0-6,0.5-8.8,1.6
					c-2.7,1-5.2,2.6-7.4,4.6c-2.1,2-3.8,4.5-5,7.2c-1.3,3-1.9,6.3-1.9,9.6c-0.1,2,0.2,4.1,0.7,6.1c0.4,1.6,1,3.2,1.7,4.8
					c0.5,1.1,1.1,2.1,1.7,3l6.5-3.1c-2.4-3-3.7-6.7-3.6-10.6c0-2.2,0.4-4.4,1.2-6.4c0.8-1.9,1.9-3.5,3.4-4.9
					c1.5-1.4,3.3-2.5,5.3-3.2c2.1-0.8,4.3-1.1,6.6-1.1c2.2,0,4.4,0.4,6.4,1.2c1.9,0.8,3.7,1.9,5.2,3.4c1.5,1.4,2.6,3,3.5,4.8
					c0.8,1.8,1.2,3.8,1.2,5.8c0,2.1-0.4,4.1-1.2,6C47,55.2,46.2,56.6,45.2,58L45.2,58z M30.4,69.6c-2.2-1.3-4.7-2-7.2-1.9
					c-2.7-0.1-5.3,0.6-7.6,1.9c-2.1,1.3-3.8,3.1-4.9,5.3c-1.2,2.4-1.8,5-1.7,7.7c-0.1,2.8,0.6,5.5,1.9,7.9c1.2,2.1,3,3.9,5.1,5.1
					c2.2,1.2,4.8,1.9,7.3,1.8c2.5,0,5-0.6,7.2-1.8c2.1-1.2,3.9-3,5.1-5.1c1.3-2.4,2-5,1.9-7.7c0-2.7-0.6-5.4-1.9-7.8
					C34.3,72.8,32.5,70.9,30.4,69.6z M30.4,86.6c-0.7,1.2-1.8,2.1-3,2.7c-1.3,0.7-2.8,1-4.3,1c-1.5,0-3-0.3-4.3-1
					c-1.2-0.6-2.3-1.6-3-2.7c-0.8-1.2-1.2-2.6-1.1-4.1c0-1.4,0.4-2.8,1.1-3.9c0.8-1.2,1.8-2.1,3-2.7c1.3-0.7,2.8-1,4.3-1
					c1.5,0,2.9,0.3,4.3,1c1.2,0.6,2.3,1.6,3,2.8C31.9,81.1,31.9,84.2,30.4,86.6L30.4,86.6z M33.3,126.3c1.3-1.1,2.4-2.5,3-4.1
					c0.7-1.8,1.1-3.6,1.1-5.5c0-2.5-0.5-4.9-1.6-7.1c-1.1-2.1-2.8-3.8-4.8-5c-2.3-1.3-5-1.9-7.6-1.8c-2.6-0.1-5.3,0.5-7.6,1.7
					c-2.1,1.1-3.8,2.7-5,4.7c-1.2,2-1.8,4.3-1.8,6.7c0,2.2,0.4,4.4,1.4,6.4c0.8,1.5,1.7,2.9,2.9,4.1H9.6v7h49.1v-7L33.3,126.3z
					 M31.1,121.7c-0.5,1.1-1.1,2.1-2,2.9c-0.9,0.8-1.9,1.4-3,1.7h-5.6c-1.1-0.4-2.1-1-3-1.7c-0.9-0.8-1.6-1.7-2-2.8
					c-0.5-1.2-0.7-2.4-0.7-3.7c0-1.5,0.4-2.9,1.1-4.1c0.7-1.2,1.8-2.3,3-3c1.3-0.8,2.8-1.1,4.3-1.1c1.5,0,3,0.4,4.4,1.1
					c1.2,0.7,2.3,1.8,3,3c0.7,1.2,1.1,2.7,1.1,4.1C31.8,119.3,31.6,120.5,31.1,121.7z M18.3,149.1l6.9,20.5c3.4-0.6,6.6-2.2,9-4.8
					c2.2-2.5,3.3-5.7,3.2-9c0-2.7-0.6-5.3-1.9-7.6c-1.2-2.2-3-4.1-5.1-5.4c-2.2-1.3-4.7-2-7.2-2c-2.6,0-5.1,0.6-7.4,1.8
					c-2.1,1.2-3.9,3-5,5.1c-1.3,2.5-1.9,5.2-1.8,8c0,1.6,0.3,3.3,0.8,4.8c0.5,1.6,1.1,3.1,2,4.5l5.3-3.2c-0.6-0.9-1.1-1.8-1.5-2.8
					c-0.4-1-0.6-2.1-0.6-3.1c0-1.4,0.3-2.9,1-4.1C16.5,150.6,17.3,149.7,18.3,149.1z M23.5,147.7c1.5,0,3,0.3,4.3,1
					c1.2,0.6,2.2,1.5,2.9,2.7c0.7,1.2,1.1,2.5,1.1,3.9c0.1,1.6-0.4,3.1-1.4,4.4c-0.8,0.9-1.9,1.7-3,2.1l-5-14
					C22.8,147.7,23.1,147.7,23.5,147.7z M51.1,177.9c0,0.7-0.1,1.4-0.4,2c-0.4,0.6-1.1,0.9-1.8,1c-1.4,0.2-2.8,0.3-4.2,0.3h-8
					c-2.4-0.1-4.8,0.8-6.5,2.5c-0.6,0.5-1.1,1.1-1.6,1.7c-0.5-0.6-1-1.2-1.6-1.7c-0.8-0.7-1.7-1.3-2.7-1.7c-1.4-0.5-2.8-0.8-4.3-0.7
					h-7.3c-1.4,0-2.8-0.1-4.1-0.3c-0.7-0.1-1.4-0.4-1.8-1c-0.3-0.6-0.5-1.3-0.4-2v-2.6H0v4.3c0,1.1,0,2.2,0.1,3.2
					c0.1,1,0.3,2,0.7,2.9c0.5,0.9,1.3,1.6,2.2,2c1.5,0.6,3.1,0.8,4.6,0.8h9.7c0.9,0,1.9,0.1,2.8,0.3c0.9,0.2,1.8,0.4,2.6,0.8
					c0.8,0.3,1.5,0.9,2,1.6c0.5,0.7,0.8,1.5,0.8,2.4h6c0-0.9,0.3-1.7,0.9-2.4c0.5-0.7,1.2-1.2,2-1.6c0.8-0.4,1.7-0.7,2.6-0.8
					c0.9-0.2,1.8-0.3,2.7-0.3h10c1.6,0.1,3.1-0.2,4.6-0.8c0.9-0.4,1.7-1.1,2.2-2c0.4-0.9,0.6-1.9,0.7-2.8c0.1-1,0.1-2.1,0.1-3.2
					v-4.3h-6.2V177.9z"/>
			</g>
		</g>
	</g>
</g>
</svg>
