<?xml version="1.0" encoding="utf-8"?>
<!-- Generator: Adobe Illustrator 24.0.0, SVG Export Plug-In . SVG Version: 6.00 Build 0)  -->
<svg version="1.1" id="Lager_1" xmlns="http://www.w3.org/2000/svg" xmlns:xlink="http://www.w3.org/1999/xlink" x="0px" y="0px"
	 viewBox="0 0 58.7 186.4" style="enable-background:new 0 0 58.7 186.4;" xml:space="preserve">
<style type="text/css">
	.st0{fill:url(#SVGID_1_);}
</style>
<title>Lager 2 (2)</title>
<g id="Lager_2_1_">
	<g id="Design">
		<g id="Lager_2-2">
			<g id="Lager_1-2">
				
					<linearGradient id="SVGID_1_" gradientUnits="userSpaceOnUse" x1="3.4071" y1="835.5388" x2="52.4371" y2="680.6989" gradientTransform="matrix(1 0 0 1 0 -671.4498)">
					<stop  offset="0" style="stop-color:#FFC886"/>
					<stop  offset="1" style="stop-color:#FFA538"/>
				</linearGradient>
				<path class="st0" d="M13.2,0v15.2c0,3,0.5,5.9,1.5,8.7c1,2.7,2.5,5.1,4.4,7.2c2,2.1,4.4,3.8,7,4.9c2.9,1.3,6,1.9,9.2,1.8
					c2.8,0,5.7-0.5,8.3-1.4c2.8-0.9,5.3-2.4,7.5-4.3c2.4-2.1,4.2-4.7,5.4-7.7c1.4-3.7,2.1-7.6,2-11.5V0H13.2z M51.7,14.9
					c0,1.8-0.3,3.6-0.9,5.3c-0.6,1.8-1.5,3.5-2.8,5c-1.3,1.6-3,2.8-4.9,3.7c-2.3,1-4.8,1.5-7.3,1.4c-2.3,0-4.6-0.4-6.7-1.2
					c-1.9-0.8-3.5-1.9-4.9-3.4c-1.3-1.5-2.4-3.3-3-5.2c-0.7-2.2-1-4.4-1-6.7V7.3h31.5L51.7,14.9z M33.8,45.8c-2.2-1.3-4.6-2-7.2-2
					c-2.5,0-5.1,0.5-7.3,1.7c-2.1,1.2-3.9,2.9-5,5.1c-1.3,2.4-1.9,5.1-1.9,7.9c0,1.6,0.3,3.3,0.8,4.8c0.5,1.6,1.2,3.1,2.1,4.5
					l5.2-3.2c-0.6-0.9-1.1-1.8-1.5-2.8c-0.4-1-0.6-2-0.5-3.1c0-1.4,0.3-2.9,1-4.1c0.6-1,1.4-1.9,2.4-2.5l6.9,20.3
					c3.4-0.6,6.5-2.2,8.9-4.7c2.1-2.5,3.3-5.7,3.2-8.9c0-2.6-0.6-5.2-1.9-7.5C37.6,49.1,35.9,47.2,33.8,45.8z M33.9,62.5
					c-0.8,0.9-1.9,1.6-3,2.1L26,50.8c0.4,0,0.8-0.1,1.1-0.1c1.5,0,3,0.3,4.3,1c1.2,0.6,2.2,1.5,2.9,2.7c0.7,1.2,1.1,2.5,1.1,3.8
					C35.4,59.8,34.9,61.3,33.9,62.5z M20.8,79.9l-4-2.9c-1.4,1.2-2.4,2.8-3.1,4.5c-0.7,1.8-1.1,3.8-1.1,5.7c-0.1,2.1,0.4,4.1,1.3,6
					c1.5,2.9,4.5,4.7,7.8,4.7c1.2,0,2.4-0.3,3.5-0.9c1-0.6,1.8-1.4,2.4-2.3c0.7-1.1,1.2-2.2,1.6-3.4c0.3-1,0.6-1.9,1-2.9
					c0.2-0.9,0.6-1.7,1.2-2.4c0.5-0.6,1.2-0.9,2-0.9c0.5,0,1,0.2,1.4,0.6c0.9,0.9,1.3,2.1,1.2,3.4c-0.2,2-1,3.9-2.4,5.4l4.2,2.7
					c1-1.2,1.7-2.7,2.2-4.2c0.5-1.7,0.7-3.4,0.7-5.2c0-1.9-0.4-3.8-1.3-5.5c-1.4-2.6-4.1-4.2-7.1-4.3c-1.8,0-3.5,0.6-4.8,1.7
					C26,81.2,25,83,24.4,85l-1,2.9c-0.3,0.8-0.6,1.5-1.1,2.2c-0.5,0.6-1.2,0.9-2,0.8c-0.6,0-1.2-0.2-1.6-0.6
					c-0.4-0.4-0.8-0.9-0.9-1.5c-0.2-0.7-0.3-1.4-0.3-2.2c0-1.1,0.3-2.3,0.8-3.3C18.9,82.1,19.8,81,20.8,79.9z M49.2,105.4
					c-1,0-2,0.4-2.7,1.3c-0.7,0.8-1,1.7-1,2.7c0,1,0.3,2,1,2.7c1.2,1.5,3.4,1.6,4.9,0.4c0,0,0,0,0,0c0.1-0.1,0.3-0.2,0.4-0.4
					c0.7-0.7,1.1-1.7,1.1-2.7c0-1-0.4-2-1.1-2.7C51.2,105.9,50.2,105.4,49.2,105.4z M13.2,112.7h26.4v-7H13.2V112.7z M33.9,122
					c-2.2-1.3-4.8-2-7.3-1.9c-2.5,0-5,0.6-7.2,1.8c-2,1.2-3.7,2.8-4.9,4.9c-1.3,2-1.9,4.3-1.9,6.7c-0.1,2.5,0.5,4.9,1.8,7
					c0.8,1.4,2,2.6,3.4,3.4h-4.4c-1.4,0.1-2.7-0.3-3.8-1c-1.1-0.8-1.9-1.8-2.4-3c-0.6-1.4-0.9-2.9-0.9-4.5c-0.1-1.7,0.3-3.4,1.2-4.9
					c0.8-1.4,1.8-2.7,2.9-3.8l-4.8-4.1c-0.9,1-1.8,2.1-2.6,3.3c-0.8,1.2-1.5,2.6-1.9,4c-1.3,4.5-1,9.3,1,13.6
					c1.1,2.2,2.7,4.1,4.7,5.4c2,1.3,4.3,2,6.7,1.9h26.4v-6.4l-3-0.6c1.3-1,2.3-2.4,3-3.9c0.9-2,1.3-4.1,1.3-6.2
					c0-2.4-0.7-4.7-1.9-6.7C37.8,125,36,123.2,33.9,122z M34.4,139.2c-0.8,2.2-2.6,3.9-4.8,4.6h-5.8c-1.1-0.4-2.1-1-2.9-1.8
					c-0.8-0.8-1.5-1.8-1.9-2.9c-0.5-1.2-0.7-2.4-0.7-3.7c0-3,1.6-5.8,4.2-7.3c1.3-0.7,2.8-1.1,4.3-1.1c1.5,0,3,0.4,4.3,1.1
					c1.2,0.7,2.2,1.8,2.9,3c0.7,1.3,1,2.8,1,4.3C35,136.8,34.8,138,34.4,139.2L34.4,139.2z M34.8,167.3l4.8-0.5v-6.2H13.2v7h11.7
					c1.8,0,3.5,0.3,5.1,0.9c1.4,0.5,2.6,1.4,3.5,2.6c0.8,1.1,1.3,2.5,1.3,3.9c0.1,1.3-0.4,2.5-1.3,3.4c-0.9,0.7-2,1.1-3.2,1.1H13.2
					v7h19.7c2.1,0,4.2-0.9,5.6-2.5c1.5-1.7,2.3-3.9,2.2-6.1c0.1-2.3-0.5-4.5-1.6-6.4C38.1,169.5,36.6,168.2,34.8,167.3L34.8,167.3z"
					/>
			</g>
		</g>
	</g>
</g>
</svg>
